<?xml version="1.0"?>
<svg xmlns="http://www.w3.org/2000/svg" xmlns:xlink="http://www.w3.org/1999/xlink" viewBox="0 0 64 64" width="512" height="512"><defs><linearGradient id="New_Gradient_Swatch_3" x1="32" y1="61.297" x2="32" y2="2.163" gradientUnits="userSpaceOnUse"><stop offset="0" stop-color="#006df0"/><stop offset="1" stop-color="#00e7f0"/></linearGradient></defs><g id="Cloud_database" data-name="Cloud database"><path d="M61,58H34.816A3,3,0,0,0,33,56.184V51.989c3.521-.068,14-.558,14-3.989V42c0-.443-.014-1.543-2.726-2.5A5,5,0,0,0,46.663,38H51a11,11,0,0,0,1-21.948,6.949,6.949,0,0,0-4.726-6.668,7.05,7.05,0,0,0-3.113-.332,14.01,14.01,0,0,0-24.32,0,7.054,7.054,0,0,0-3.114.332A6.951,6.951,0,0,0,12,16.045,11,11,0,0,0,13,38h4.337a5.008,5.008,0,0,0,2.388,1.5C17.014,40.457,17,41.557,17,42v6c0,3.431,10.479,3.921,14,3.989v4.2A3,3,0,0,0,29.184,58H3a1,1,0,0,0,0,2H29.184a2.982,2.982,0,0,0,5.632,0H61a1,1,0,0,0,0-2ZM19,47.911V44.205C22.809,45.934,30.835,46,32,46s9.191-.066,13-1.8v3.706C44.413,48.68,39.7,50,32,50S19.59,48.681,19,47.911Zm0-11V33.205C22.809,34.934,30.835,35,32,35s9.191-.066,13-1.8v3.706C44.413,37.68,39.7,39,32,39S19.59,37.681,19,36.911Zm0-11V22.205C22.809,23.934,30.835,24,32,24s9.191-.066,13-1.8v3.706C44.413,26.68,39.7,28,32,28S19.59,26.681,19,25.911ZM19.084,20c.869-.778,5.518-2,12.916-2s12.047,1.222,12.916,2c-.869.778-5.518,2-12.916,2S19.953,20.778,19.084,20ZM32,30a63.678,63.678,0,0,0,7.71-.492c3.4.5,4.8,1.163,5.2,1.5C44.029,31.784,39.386,33,32,33s-12.03-1.216-12.911-1.994c.4-.335,1.806-1,5.2-1.5A63.678,63.678,0,0,0,32,30ZM4,27a9.031,9.031,0,0,1,9.09-9,1,1,0,0,0,.985-1.17,4.96,4.96,0,0,1,3.3-5.554,5.036,5.036,0,0,1,2.778-.142,1,1,0,0,0,1.121-.524,12.009,12.009,0,0,1,21.454,0,1,1,0,0,0,1.121.524,5.044,5.044,0,0,1,2.778.142,4.959,4.959,0,0,1,3.3,5.554,1.03,1.03,0,0,0,.265.814A1.094,1.094,0,0,0,51,18a9,9,0,0,1,0,18H47V31c0-.443-.014-1.543-2.726-2.5C45.89,27.918,47,27.115,47,26V20c0-3.888-13.465-4-15-4s-15,.112-15,4v6c0,1.115,1.11,1.918,2.725,2.5C17.014,29.457,17,30.557,17,31v5H13A9.011,9.011,0,0,1,4,27ZM24.29,40.508A63.678,63.678,0,0,0,32,41a63.678,63.678,0,0,0,7.71-.492c3.4.495,4.8,1.163,5.2,1.5C44.029,42.784,39.386,44,32,44s-12.03-1.216-12.911-1.994C19.493,41.671,20.9,41,24.29,40.508ZM32,60a1,1,0,1,1,1-1A1,1,0,0,1,32,60Z" style="fill:url(#New_Gradient_Swatch_3)"/></g></svg>
