<svg height="484pt" viewBox="0 -101 484.00543 484" width="484pt" xmlns="http://www.w3.org/2000/svg" xmlns:xlink="http://www.w3.org/1999/xlink"><linearGradient id="lg1"><stop offset="0" stop-color="#00efd1"/><stop offset="1" stop-color="#00acea"/></linearGradient><linearGradient id="linear0" gradientUnits="userSpaceOnUse" x1="242.000377" x2="242.000377" xlink:href="#lg1" y1="-89.173225" y2="359.318775"/><linearGradient id="linear1" gradientUnits="userSpaceOnUse" x1="84.500377" x2="84.500377" xlink:href="#lg1" y1="-89.173225" y2="359.318775"/><path d="m481.308594 20.75c-1.664063-1.089844-3.789063-1.183594-5.546875-.246094l-125.761719 63.570313v-34.390625c0-27.511719-22.816406-49.67968775-50.328125-49.67968775h-250.109375c-13.171875-.01953125-25.808594 5.21093775-35.109375 14.53515575-9.300781 9.324219-14.5039062 21.972657-14.453125 35.144532v182.640625c-.0507812 13.171875 5.152344 25.820312 14.453125 35.144531s21.9375 14.554688 35.109375 14.535156h250.109375c27.511719 0 50.328125-22.171875 50.328125-49.679687v-48.582031l125.375 78.261718c.910156.589844 1.976562.90625 3.0625.90625.949219 0 1.882812-.261718 2.695312-.753906 1.851563-1.085938 2.957032-3.105469 2.867188-5.253906v-231.042969c.066406-2.054687-.957031-3.996094-2.691406-5.109375zm-143.308594 211.363281c0 20.925781-16.964844 37.890625-37.890625 37.890625h-250.21875c-20.925781 0-37.890625-16.964844-37.890625-37.890625v-182.21875c0-20.925781 16.964844-37.890625 37.890625-37.890625h250.21875c20.925781 0 37.890625 16.964844 37.890625 37.890625zm134 13.988281-122-76.5v-72.089843l122-61.910157zm0 0" fill="url(#linear0)"/><path d="m84.5 45.089844c-21.214844 0-38.410156 17.199218-38.410156 38.414062 0 21.210938 17.195312 38.410156 38.410156 38.410156s38.410156-17.199218 38.410156-38.410156c-.023437-21.207031-17.207031-38.386718-38.410156-38.414062zm0 64.824218c-14.585938 0-26.410156-11.824218-26.410156-26.410156 0-14.585937 11.824218-26.414062 26.410156-26.414062s26.410156 11.828125 26.410156 26.414062c-.015625 14.578125-11.832031 26.394532-26.410156 26.410156zm0 0" fill="url(#linear1)"/></svg>